<svg width="24" height="24" viewBox="0 0 24 24" fill="none" xmlns="http://www.w3.org/2000/svg">
<path d="M12 2C8.16566 2 5.05732 4.86538 5.05732 8.4V11.4877C5.05732 12.2426 4.72353 12.9744 4.14449 13.5082C2.78607 14.7604 3.71363 16.9333 5.63472 16.9333H18.3652C20.2864 16.9333 21.2139 14.7604 19.8555 13.5082C19.2765 12.9744 18.9426 12.2426 18.9426 11.4877V8.4C18.9426 4.86538 15.8343 2 12 2Z" fill="#777777"/>
<path d="M10.5537 19.0667C10.5537 18.6249 10.1651 18.2667 9.68586 18.2667C9.20657 18.2667 8.81803 18.6249 8.81803 19.0667C8.81803 20.6867 10.2427 22 12.0001 22C13.7575 22 15.1821 20.6867 15.1821 19.0667C15.1821 18.6249 14.7936 18.2667 14.3143 18.2667C13.835 18.2667 13.4465 18.6249 13.4465 19.0667C13.4465 19.8031 12.799 20.4 12.0001 20.4C11.2012 20.4 10.5537 19.8031 10.5537 19.0667Z" fill="#777777"/>
</svg>
