<svg
												
												xmlns="http://www.w3.org/2000/svg"
												width="16"
												height="16"
												viewBox="0 0 16 16"
												fill="none"
												className="absolute right-4 top-10"
											>
												<path
													d="M0 8C0 3.58172 3.58172 0 8 0C12.4182 0 16 3.58172 16 8C16 12.4182 12.4182 16 8 16C3.58172 16 0 12.4182 0 8Z"
													fill="#27AE60"
												/>
												<path
													fillRule="evenodd"
													clipRule="evenodd"
													d="M11.5989 5.15168C11.8466 5.3719 11.8688 5.75115 11.6485 5.99876L7.97764 10.1261C7.42044 10.7526 6.44131 10.7521 5.88463 10.1251L4.35152 8.39833C4.13152 8.15057 4.15405 7.77137 4.40184 7.55137C4.64964 7.33129 5.02887 7.35385 5.24888 7.60169L6.78195 9.3284C6.86147 9.418 7.00139 9.41809 7.081 9.32857L10.7519 5.20125C10.9721 4.95365 11.3513 4.93145 11.5989 5.15168Z"
													fill="#F8F9F9"
												/>
											</svg>