<svg width="16" height="16" viewBox="0 0 16 16" fill="none" xmlns="http://www.w3.org/2000/svg">
<path opacity="0.5" fillRule="evenodd" clipRule="evenodd" d="M1.53846 9.61536C1.83585 9.61536 2.07692 9.85643 2.07692 10.1538C2.07692 11.1844 2.07807 11.9031 2.15098 12.4454C2.22181 12.9722 2.35136 13.2512 2.55006 13.4499C2.74876 13.6486 3.02774 13.7782 3.55455 13.849C4.09685 13.9219 4.8156 13.923 5.84615 13.923H10.1538C11.1844 13.923 11.9031 13.9219 12.4455 13.849C12.9723 13.7782 13.2512 13.6486 13.4499 13.4499C13.6486 13.2512 13.7782 12.9722 13.849 12.4454C13.9219 11.9031 13.9231 11.1844 13.9231 10.1538C13.9231 9.85643 14.1642 9.61536 14.4615 9.61536C14.7589 9.61536 15 9.85643 15 10.1538V10.1932C15 11.1751 15 11.9665 14.9163 12.5889C14.8295 13.2352 14.6436 13.7793 14.2114 14.2114C13.7793 14.6436 13.2352 14.8294 12.5889 14.9163C11.9665 15 11.1751 15 10.1932 15H5.80676C4.8249 15 4.03349 15 3.41105 14.9163C2.76482 14.8294 2.2207 14.6436 1.78856 14.2114C1.35641 13.7793 1.17054 13.2352 1.08366 12.5889C0.999974 11.9665 0.999986 11.1751 1 10.1932C1 10.1801 1 10.167 1 10.1538C1 9.85643 1.24108 9.61536 1.53846 9.61536Z" fill="#1078CA"/>
<path fillRule="evenodd" clipRule="evenodd" d="M7.99998 11.4103C8.15116 11.4103 8.29537 11.3467 8.39738 11.2352L11.2692 8.09413C11.4698 7.87465 11.4546 7.53406 11.2351 7.33339C11.0156 7.13273 10.675 7.14798 10.4744 7.36745L8.53844 9.48488V1.53848C8.53844 1.2411 8.29737 1.00002 7.99998 1.00002C7.7026 1.00002 7.46152 1.2411 7.46152 1.53848V9.48488L5.52559 7.36745C5.32492 7.14798 4.98433 7.13273 4.76485 7.33339C4.54537 7.53406 4.53012 7.87465 4.73079 8.09413L7.60258 11.2352C7.70459 11.3467 7.8488 11.4103 7.99998 11.4103Z" fill="#1078CA"/>
</svg>
