<svg width="14" height="10" viewBox="0 0 14 10" fill="none" xmlns="http://www.w3.org/2000/svg">
<path fillRule="evenodd" clipRule="evenodd" d="M12.9772 0.726771C13.1789 0.556766 13.1737 0.285446 12.9654 0.120755C12.7571 -0.0439363 12.4247 -0.0396278 12.223 0.130372L1.37302 9.27325C1.17128 9.44325 1.17655 9.71456 1.3848 9.87925C1.59306 10.0439 1.92543 10.0396 2.12717 9.86959L3.46948 8.7385C4.54035 9.32422 5.7422 9.64353 6.99324 9.64353H7.0001C9.89572 9.64353 12.4977 7.96708 13.9591 5.16542C14.0137 5.06417 14.0137 4.94039 13.9591 4.83354C13.3422 3.65131 12.5211 2.66439 11.554 1.92603L12.9772 0.726771ZM9.31395 3.81361L8.56159 4.4476C8.65175 4.6164 8.7018 4.80257 8.7018 4.99822C8.7018 5.75736 7.93691 6.37794 7.00129 6.37794C6.78296 6.37794 6.57422 6.34462 6.38228 6.28405L5.61032 6.93456C6.01751 7.13051 6.49526 7.24696 7.0001 7.24696C8.50251 7.24696 9.72499 6.23994 9.72499 5.00228C9.72499 4.56817 9.57148 4.1584 9.31395 3.81361Z" fill="#777777"/>
<path d="M6.99314 0.36084H7C7.97657 0.36084 8.92584 0.552114 9.8 0.911599L7.51905 2.79116C7.35511 2.76866 7.17759 2.75179 7 2.75179C5.49073 2.75179 4.26829 3.7588 4.26829 5.00207C4.26829 5.14835 4.28878 5.29464 4.31609 5.42967L1.78927 7.51115C1.10634 6.85858 0.512195 6.07041 0.0409762 5.16521C-0.0136587 5.06395 -0.0136587 4.94018 0.0409762 4.83333C1.50244 2.03169 4.10438 0.36084 6.99314 0.36084Z" fill="#777777"/>
</svg>
