<svg width="14" height="10" viewBox="0 0 14 10" fill="none" xmlns="http://www.w3.org/2000/svg">
<path d="M7.00129 6.50665C7.93691 6.50665 8.70173 5.8279 8.70173 4.99759C8.70173 4.16122 7.93691 3.48242 7.00129 3.48242C6.91932 3.48242 6.83735 3.48909 6.76224 3.5006C6.73494 4.1679 6.12027 4.70122 5.36224 4.70122H5.32809C5.30761 4.79815 5.29395 4.89453 5.29395 4.99759C5.29395 5.8279 6.05881 6.50665 7.00129 6.50665Z" fill="#777777"/>
<path fill-rule="evenodd" clip-rule="evenodd" d="M13.9591 4.81819C13.2283 3.30909 12.2107 2.10243 11.0156 1.27879C9.82051 0.448488 8.44781 0 7 0H6.99314C4.10439 0 1.50244 1.79939 0.0409763 4.81819C-0.0136588 4.93275 -0.0136588 5.06669 0.0409763 5.17575C1.50244 8.19394 4.10439 10 6.99314 10H7C9.89562 10 12.4976 8.19394 13.9591 5.17575C14.0137 5.06669 14.0137 4.93275 13.9591 4.81819ZM7 7.41819C5.49073 7.41819 4.26829 6.33331 4.26829 5C4.26829 3.66061 5.49073 2.57576 7 2.57576C8.50241 2.57576 9.72489 3.66061 9.72489 5C9.72489 6.33331 8.50241 7.41819 7 7.41819Z" fill="#777777"/>
</svg>
