<svg width="16" height="16" viewBox="0 0 16 16" fill="none" xmlns="http://www.w3.org/2000/svg">
<path fillRule="evenodd" clipRule="evenodd" d="M1.55053 2.7172C1.90303 2.3647 2.38112 2.16667 2.87963 2.16667H7.41667C7.73883 2.16667 8 2.42783 8 2.75C8 3.07217 7.73883 3.33333 7.41667 3.33333H2.87963C2.69054 3.33333 2.5092 3.40845 2.37549 3.54216C2.24178 3.67586 2.16667 3.85721 2.16667 4.0463V13.1204C2.16667 13.3095 2.24178 13.4908 2.37549 13.6245C2.5092 13.7582 2.69054 13.8333 2.87963 13.8333H11.9537C12.1428 13.8333 12.3241 13.7582 12.4578 13.6245C12.5916 13.4908 12.6667 13.3095 12.6667 13.1204V8.58333C12.6667 8.26117 12.9278 8 13.25 8C13.5722 8 13.8333 8.26117 13.8333 8.58333V13.1204C13.8333 13.6189 13.6353 14.097 13.2828 14.4495C12.9303 14.802 12.4522 15 11.9537 15H2.87963C2.38112 15 1.90303 14.802 1.55053 14.4495C1.19803 14.097 1 13.6189 1 13.1204V4.0463C1 3.54779 1.19803 3.0697 1.55053 2.7172Z" fill="#1078CA"/>
<path fillRule="evenodd" clipRule="evenodd" d="M13.1022 2.16667C12.9209 2.16667 12.7388 2.24315 12.5983 2.39295L6.81862 8.558L6.45668 10.1023L7.83371 9.73507L13.6061 3.57784C13.7478 3.42676 13.8333 3.21425 13.8333 2.9854C13.8333 2.75654 13.7478 2.54404 13.6061 2.39295C13.4657 2.24315 13.2835 2.16667 13.1022 2.16667ZM11.7472 1.59502C12.0998 1.21895 12.5863 1 13.1022 1C13.6181 1 14.1047 1.21895 14.4572 1.59502C14.8086 1.96982 15 2.47055 15 2.9854C15 3.50024 14.8086 4.00098 14.4572 4.37577L8.57075 10.6547C8.49619 10.7342 8.40083 10.7913 8.29549 10.8194L5.81697 11.4803C5.6189 11.5331 5.40764 11.4781 5.2605 11.3354C5.11336 11.1926 5.05195 10.9831 5.09872 10.7836L5.71835 8.1398C5.74169 8.04023 5.79079 7.94855 5.86073 7.87394L11.7472 1.59502Z" fill="#BBDEFA"/>
</svg>
