<svg width="21" height="20" viewBox="0 0 21 20" fill="none" xmlns="http://www.w3.org/2000/svg">
<g clip-path="url(#clip0_779_8679)">
<path d="M4.84338 15.6569C1.71918 12.5327 1.71918 7.46734 4.84338 4.34315C7.96754 1.21898 13.0329 1.21895 16.1571 4.34315C19.2813 7.46731 19.2813 12.5327 16.1571 15.6569C13.0329 18.781 7.96754 18.781 4.84338 15.6569Z" fill="#1078CA"/>
<path d="M6.84507 9.39997C6.51369 9.39997 6.24506 9.66859 6.24507 9.99997C6.24506 10.3313 6.51369 10.6 6.84507 10.6L9.90027 10.6L9.90024 13.6551C9.90025 13.9865 10.1689 14.2552 10.5003 14.2552C10.8316 14.2552 11.1003 13.9865 11.1003 13.6552L11.1003 10.6L14.1555 10.6C14.4868 10.6 14.7555 10.3313 14.7555 9.99994C14.7554 9.66862 14.4868 9.39998 14.1555 9.39992L11.1003 9.39998L11.1003 6.34474C11.1002 6.01342 10.8316 5.7448 10.5003 5.74474C10.1689 5.74475 9.90027 6.01339 9.90027 6.34477L9.90027 9.39992L6.84507 9.39997Z" fill="white"/>
</g>
<defs>
<clipPath id="clip0_779_8679">
<rect width="20" height="20" fill="white" transform="translate(0.5)"/>
</clipPath>
</defs>
</svg>
