<svg width="16" height="16" viewBox="0 0 16 16" fill="none" xmlns="http://www.w3.org/2000/svg">
<path d="M1.91546 6.26981C1.84297 5.82344 2.2075 5.4209 2.68419 5.4209H13.3155C13.7922 5.4209 14.1567 5.82344 14.0842 6.26981L12.8694 13.7502C12.7527 14.4692 12.0997 14.9998 11.332 14.9998H4.66771C3.89992 14.9998 3.24699 14.4692 3.13023 13.7502L1.91546 6.26981Z" fill="#E84040"/>
<path d="M1 3.21053C1 2.80358 1.34823 2.47368 1.77778 2.47368H3.63042C3.92502 2.47368 4.19433 2.316 4.32608 2.06637L4.67392 1.40732C4.80567 1.15768 5.07498 1 5.36958 1H10.6304C10.925 1 11.1943 1.15768 11.3261 1.40732L11.6739 2.06637C11.8057 2.316 12.075 2.47368 12.3696 2.47368H14.2222C14.6518 2.47368 15 2.80358 15 3.21053C15 3.61747 14.6518 3.94737 14.2222 3.94737H1.77778C1.34823 3.94737 1 3.61747 1 3.21053Z" fill="#F9CFCF"/>
</svg>
