<svg width="20" height="20" viewBox="0 0 20 20" fill="none" xmlns="http://www.w3.org/2000/svg">
<g id="Icon/filled/Eye-Vicible">
<path id="Vector" d="M10.0015 12.0095C11.1153 12.0095 12.0258 11.1045 12.0258 9.99743C12.0258 8.88226 11.1153 7.9772 10.0015 7.9772C9.90393 7.9772 9.80635 7.98609 9.71693 8.00144C9.68443 8.89118 8.95268 9.60226 8.05027 9.60226H8.00961C7.98523 9.73151 7.96896 9.86001 7.96896 9.99743C7.96896 11.1045 8.87951 12.0095 10.0015 12.0095Z" fill="#777777"/>
<path id="Vector_2" fill-rule="evenodd" clip-rule="evenodd" d="M18.2846 9.75759C17.4147 7.74547 16.2032 6.13658 14.7805 5.03839C13.3577 3.93133 11.7236 3.33334 9.99999 3.33334H9.99182C6.55283 3.33334 3.45527 5.73253 1.71544 9.75759C1.6504 9.91034 1.6504 10.0889 1.71544 10.2343C3.45527 14.2586 6.55283 16.6667 9.99182 16.6667H9.99999C13.4472 16.6667 16.5447 14.2586 18.2846 10.2343C18.3496 10.0889 18.3496 9.91034 18.2846 9.75759ZM9.99999 13.2243C8.20324 13.2243 6.74795 11.7778 6.74795 10C6.74795 8.21415 8.20324 6.76769 9.99999 6.76769C11.7886 6.76769 13.2439 8.21415 13.2439 10C13.2439 11.7778 11.7886 13.2243 9.99999 13.2243Z" fill="#777777"/>
</g>
</svg>
